Coordinates
version=1
nRows=35
nColumns=38
inDegrees=no

Units are S.I. units (second, meters, Newtons, ...)
If the header above contains a line with 'inDegrees', this indicates whether rotational values are in degrees (yes) or radians (no).

endheader
time	pelvis_tilt	pelvis_list	pelvis_rotation	pelvis_tx	pelvis_ty	pelvis_tz	hip_flexion_r	hip_adduction_r	hip_rotation_r	knee_angle_r	ankle_angle_r	subtalar_angle_r	mtp_angle_r	hip_flexion_l	hip_adduction_l	hip_rotation_l	knee_angle_l	ankle_angle_l	subtalar_angle_l	mtp_angle_l	lumbar_extension	lumbar_bending	lumbar_rotation	arm_flex_r	arm_add_r	arm_rot_r	elbow_flex_r	pro_sup_r	wrist_flex_r	wrist_dev_r	arm_flex_l	arm_add_l	arm_rot_l	elbow_flex_l	pro_sup_l	wrist_flex_l	wrist_dev_l
2.75833	-0.124587	-0.0513306	-0.0780046	1.21604	1.00819	-0.292019	0.597186	0.0868932	-0.449674	-0.244855	0.0436176	0.513274	0	-0.151414	-0.00976321	-0.184213	-1.37693	-0.325085	0.30203	0	-0.0943414	0.127176	-0.156646	-0.906351	-0.098531	-0.400059	1.51216	1.23657	0	0	-0.387806	-0.317175	0.101897	2.40169	1.5294	0	0
2.76667	-0.107908	-0.0546985	-0.0802791	1.21573	1.0038	-0.291732	0.573292	0.0885702	-0.434189	-0.286239	0.0589402	0.487014	0	-0.138491	-0.0263704	-0.19812	-1.49288	-0.29892	0.260236	0	-0.114782	0.131406	-0.138754	-0.892943	-0.101289	-0.382173	1.52112	1.24336	0	0	-0.416507	-0.310727	0.102434	2.34073	1.53302	0	0
2.775	-0.0936205	-0.0592949	-0.0832358	1.21525	0.998706	-0.291315	0.554455	0.0911195	-0.412224	-0.343245	0.0908153	0.461266	0	-0.12178	-0.0462506	-0.212031	-1.60646	-0.26638	0.221469	0	-0.132443	0.136887	-0.119791	-0.87473	-0.107459	-0.361609	1.52887	1.25456	0	0	-0.446014	-0.303488	0.0997336	2.27513	1.54429	0	0
2.78333	-0.0825811	-0.0646503	-0.0862279	1.2145	0.993015	-0.29082	0.540584	0.0945595	-0.38588	-0.412173	0.139313	0.43762	0	-0.0991311	-0.0685884	-0.223312	-1.71733	-0.228245	0.188291	0	-0.14651	0.14306	-0.100333	-0.851307	-0.116445	-0.338691	1.5358	1.2689	0	0	-0.475691	-0.295751	0.0944048	2.20498	1.56059	0	0
2.79167	-0.0753755	-0.0703593	-0.0887025	1.21335	0.986951	-0.290301	0.53096	0.0989359	-0.357539	-0.488408	0.202479	0.417055	0	-0.0685558	-0.0924514	-0.229921	-1.82496	-0.185859	0.162468	0	-0.156495	0.149406	-0.0807687	-0.822524	-0.127435	-0.31398	1.54255	1.2848	0	0	-0.504848	-0.28784	0.0871969	2.13067	1.57808	0	0
2.8	-0.072184	-0.0760366	-0.0902732	1.21172	0.980826	-0.289805	0.524088	0.104209	-0.329353	-0.56663	0.276329	0.399965	0	-0.028594	-0.116742	-0.230594	-1.92839	-0.140817	0.144775	0	-0.162343	0.155393	-0.0612709	-0.788577	-0.139481	-0.288296	1.55	1.30077	0	0	-0.532858	-0.280085	0.0788566	2.05301	1.59262	0	0
2.80833	-0.072722	-0.0812585	-0.0907389	1.20963	0.974983	-0.289358	0.517749	0.110117	-0.302926	-0.641279	0.355403	0.386383	0	0.0213998	-0.140175	-0.224935	-2.02613	-0.0946729	0.134921	0	-0.164438	0.160429	-0.0418202	-0.750094	-0.151594	-0.262727	1.55927	1.31569	0	0	-0.559287	-0.272813	0.0699892	1.97332	1.60085	0	0
2.81667	-0.0762934	-0.0855139	-0.0900559	1.20712	0.969749	-0.288962	0.509268	0.116073	-0.279201	-0.707181	0.433679	0.376223	0	0.0811344	-0.161315	-0.213408	-2.11626	-0.0487783	0.131606	0	-0.163509	0.163831	-0.0222852	-0.708159	-0.162834	-0.238569	1.57162	1.3291	0	0	-0.584008	-0.266359	0.0609585	1.89343	1.6009	0	0
2.825	-0.0819513	-0.0881946	-0.0882861	1.20427	0.965378	-0.28861	0.495974	0.121149	-0.258583	-0.760185	0.505578	0.369501	0	0.149445	-0.17869	-0.19723	-2.19655	-0.00423738	0.132721	0	-0.160417	0.164853	-0.00251952	-0.664265	-0.172402	-0.217201	1.58832	1.34122	0	0	-0.607259	-0.261064	0.0518447	1.81563	1.59281	0	0
2.83333	-0.0887148	-0.0886409	-0.0855465	1.2012	0.962049	-0.2883	0.475689	0.124149	-0.241248	-0.797611	0.566694	0.36651	0	0.224504	-0.190964	-0.178175	-2.26474	0.038043	0.135712	0	-0.155932	0.162758	0.0175569	-0.620177	-0.179726	-0.199885	1.61048	1.35275	0	0	-0.629631	-0.257264	0.042463	1.74252	1.57835	0	0
2.84167	-0.0957652	-0.0862385	-0.0819755	1.19811	0.959884	-0.288045	0.447096	0.123799	-0.227413	-0.818382	0.614007	0.367741	0	0.3041	-0.197159	-0.158327	-2.31883	0.0773054	0.138073	0	-0.150547	0.156943	0.0379151	-0.577733	-0.184539	-0.187548	1.63888	1.36462	0	0	-0.651991	-0.255247	0.0324332	1.67676	1.56042	0	0
2.85	-0.10256	-0.0805325	-0.0777146	1.19523	0.958948	-0.287867	0.409875	0.118983	-0.217524	-0.822846	0.645698	0.373707	0	0.385896	-0.196816	-0.139799	-2.35731	0.112878	0.137762	0	-0.14442	0.147053	0.0584134	-0.538625	-0.186912	-0.180581	1.67377	1.37753	0	0	-0.675341	-0.255197	0.0212764	1.62078	1.54238	0	0
2.85833	-0.108851	-0.0713203	-0.0728977	1.19278	0.959246	-0.287787	0.364631	0.108956	-0.212277	-0.812433	0.660802	0.384714	0	0.467655	-0.190088	-0.12445	-2.37931	0.144153	0.13351	0	-0.137425	0.133053	0.0788179	-0.504196	-0.187227	-0.178748	1.71481	1.39176	0	0	-0.700665	-0.257151	0.00852447	1.5765	1.52731	0	0
2.86667	-0.114635	-0.058696	-0.067643	1.19092	0.960721	-0.28782	0.31268	0.0934973	-0.212484	-0.789242	0.658889	0.400633	0	0.547389	-0.177715	-0.113667	-2.38468	0.170609	0.124965	0	-0.129282	0.115239	0.0988324	-0.475314	-0.186094	-0.181205	1.7611	1.40694	0	0	-0.728788	-0.260975	-0.00617893	1.54512	1.51739	0	0
2.875	-0.120064	-0.0430401	-0.0620496	1.18975	0.963271	-0.287972	0.255773	0.0729498	-0.218829	-0.75569	0.639837	0.420774	0	0.623469	-0.16091	-0.108242	-2.37393	0.19184	0.112672	0	-0.119704	0.0941733	0.118127	-0.452324	-0.184231	-0.186635	1.81127	1.42221	0	0	-0.760269	-0.266379	-0.0230102	1.527	1.51347	0	0
2.88333	-0.125379	-0.0249693	-0.0561977	1.18932	0.966756	-0.288249	0.195865	0.0481652	-0.231618	-0.714271	0.603779	0.44389	0	0.694687	-0.141164	-0.108341	-2.34813	0.2076	0.0978992	0	-0.108507	0.0706041	0.136364	-0.435084	-0.18234	-0.193471	1.86364	1.43642	0	0	-0.795345	-0.272939	-0.0419433	1.52168	1.51505	0	0
2.89167	-0.130855	-0.00526868	-0.0501551	1.18959	0.971006	-0.288643	0.134941	0.020399	-0.250486	-0.667447	0.551212	0.468157	0	0.760284	-0.120041	-0.113561	-2.30878	0.217834	0.082382	0	-0.095655	0.0453794	0.153224	-0.423066	-0.181006	-0.200149	1.91645	1.44848	0	0	-0.833905	-0.280125	-0.0627799	1.52799	1.52047	0	0
2.9	-0.136782	0.0151791	-0.0439797	1.19044	0.975823	-0.289138	0.0749279	-0.00885223	-0.274237	-0.617667	0.483257	0.491392	0	0.819934	-0.09898	-0.123054	-2.25759	0.222694	0.0680212	0	-0.0812606	0.0193862	0.168425	-0.415489	-0.180642	-0.205349	1.96797	1.45767	0	0	-0.875495	-0.287323	-0.0852166	1.54417	1.52747	0	0
2.90833	-0.143433	0.0354592	-0.0377241	1.1917	0.980989	-0.289704	0.017642	-0.0380196	-0.300824	-0.567443	0.401959	0.511356	0	0.87367	-0.0791604	-0.135682	-2.1963	0.222591	0.0566895	0	-0.0655551	-0.00649134	0.181734	-0.411449	-0.181468	-0.208175	2.01663	1.46387	0	0	-0.91934	-0.293862	-0.108918	1.56814	1.53385	0	0
2.91667	-0.151043	0.0546851	-0.0314469	1.19319	0.986276	-0.290299	-0.035245	-0.0655807	-0.327363	-0.519438	0.310563	0.5259	0	0.921759	-0.0614424	-0.150212	-2.12652	0.218239	0.0501161	0	-0.0488649	-0.031404	0.192989	-0.41002	-0.183517	-0.208245	2.06108	1.46758	0	0	-0.964379	-0.299063	-0.133565	1.59761	1.53798	0	0
2.925	-0.159743	0.0720583	-0.0252319	1.19468	0.991467	-0.290874	-0.0822635	-0.0901761	-0.350399	-0.476507	0.213603	0.533232	0	0.964521	-0.0463656	-0.165489	-2.04956	0.210653	0.0498042	0	-0.0316157	-0.0545772	0.202109	-0.410336	-0.186663	-0.205676	2.10021	1.46981	0	0	-1.00933	-0.302309	-0.158858	1.63034	1.53902	0	0
2.93333	-0.169491	0.0869247	-0.0192048	1.19599	0.996384	-0.291366	-0.122244	-0.11072	-0.366421	-0.441645	0.116672	0.532272	0	1.00212	-0.0341853	-0.180588	-1.96637	0.201081	0.0569498	0	-0.0143636	-0.0753578	0.209108	-0.411637	-0.190652	-0.200997	2.13308	1.47189	0	0	-1.05274	-0.303139	-0.184485	1.66423	1.53692	0	0
2.94167	-0.180013	0.098817	-0.0135344	1.19696	1.00091	-0.291705	-0.154425	-0.12646	-0.372448	-0.417809	0.0258804	0.522809	0	1.03441	-0.0249224	-0.194905	-1.8775	0.19085	0.0723613	0	0.00217635	-0.0932546	0.214096	-0.413317	-0.19514	-0.195017	2.15899	1.47513	0	0	-1.09314	-0.301338	-0.210074	1.69751	1.53222	0	0
2.95	-0.190772	0.107476	-0.00840485	1.19747	1.00501	-0.291828	-0.178552	-0.136985	-0.366555	-0.407631	-0.0529737	0.505381	0	1.06083	-0.0184128	-0.20819	-1.78314	0.18118	0.0964526	0	0.0171293	-0.107963	0.217261	-0.414966	-0.19973	-0.188679	2.17744	1.48066	0	0	-1.12908	-0.297006	-0.235146	1.72878	1.52572	0	0
2.95833	-0.201003	0.11285	-0.00395807	1.1975	1.00869	-0.291695	-0.194928	-0.14219	-0.348258	-0.413072	-0.115386	0.480995	0	1.08045	-0.0143262	-0.220514	-1.68322	0.172949	0.129216	0	0.0295048	-0.119376	0.21883	-0.416401	-0.204008	-0.182906	2.18813	1.48912	0	0	-1.1593	-0.290582	-0.259107	1.75705	1.51815	0	0
2.96667	-0.209791	0.115082	-0.000227697	1.19704	1.012	-0.291306	-0.204381	-0.142253	-0.318732	-0.435181	-0.158917	0.450896	0	1.09211	-0.0121608	-0.232182	-1.57756	0.166447	0.170157	0	0.0382836	-0.127571	0.219004	-0.417671	-0.207582	-0.178461	2.191	1.50042	0	0	-1.18282	-0.282808	-0.28129	1.78178	1.51005	0	0
2.975	-0.216191	0.11448	0.00290157	1.19615	1.01499	-0.290706	-0.208152	-0.137624	-0.280748	-0.473998	-0.18351	0.416439	0	1.09463	-0.0112408	-0.24362	-1.46607	0.161248	0.218201	0	0.04253	-0.132804	0.21791	-0.419021	-0.210124	-0.175828	2.18621	1.51363	0	0	-1.19903	-0.274631	-0.301037	1.80279	1.50167	0	0
2.98333	-0.219347	0.111489	0.00568172	1.19491	1.01772	-0.28997	-0.20772	-0.128983	-0.23816	-0.52858	-0.191281	0.378833	0	1.08702	-0.0107646	-0.255293	-1.34897	0.156259	0.271685	0	0.0415064	-0.135473	0.215575	-0.420815	-0.211415	-0.175139	2.17415	1.52701	0	0	-1.20773	-0.267058	-0.317805	1.82025	1.49305	0	0
2.99167	-0.218603	0.106646	0.00843525	1.19342	1.0202	-0.289184	-0.204622	-0.117171	-0.195094	-0.597137	-0.185866	0.338839	0	1.06874	-0.00991024	-0.267656	-1.22697	0.149972	0.328437	0	0.0347746	-0.136083	0.211943	-0.423436	-0.211377	-0.176164	2.15533	1.53836	0	0	-1.2091	-0.261005	-0.331249	1.83454	1.4841	0	0
3	-0.213595	0.100548	0.0114653	1.1918	1.02244	-0.288424	-0.200259	-0.103157	-0.155296	-0.677289	-0.171573	0.29685	0	1.03986	-0.00794738	-0.28111	-1.10146	0.140778	0.38582	0	0.0222739	-0.135203	0.20692	-0.427194	-0.210092	-0.178374	2.13035	1.54545	0	0	-1.20369	-0.257168	-0.341276	1.84619	1.47482	0	0
3.00833	-0.204304	0.0938054	0.0149749	1.19013	1.02439	-0.28774	-0.195716	-0.0880129	-0.12173	-0.766395	-0.152579	0.253189	0	1.00112	-0.00433698	-0.295943	-0.974613	0.127279	0.440798	0	0.00436805	-0.133411	0.200424	-0.432261	-0.207792	-0.181045	2.09977	1.54641	0	0	-1.19228	-0.255954	-0.34803	1.85576	1.46539	0	0
3.01667	-0.191081	0.0869934	0.0190186	1.18851	1.02597	-0.287151	-0.191627	-0.0728508	-0.096305	-0.861859	-0.132338	0.208275	0	0.95401	0.00117387	-0.312307	-0.849368	0.108567	0.490252	0	-0.0181453	-0.131244	0.192441	-0.438652	-0.204817	-0.183375	2.0641	1.54005	0	0	-1.17579	-0.257474	-0.351834	1.86373	1.45621	0	0
3.025	-0.174628	0.0806055	0.0234952	1.18701	1.02709	-0.286649	-0.188095	-0.0587128	-0.0797494	-0.961391	-0.113249	0.162614	0	0.900657	0.00847095	-0.330239	-0.729379	0.0844105	0.531578	0	-0.0440734	-0.129151	0.183055	-0.446236	-0.201558	-0.184601	2.02368	1.52597	0	0	-1.15514	-0.261603	-0.353101	1.87053	1.44784	0	0
3.03333	-0.155941	0.0750135	0.0281862	1.18566	1.02763	-0.28621	-0.184688	-0.0464919	-0.0717396	-1.06317	-0.0965607	0.116852	0	0.84371	0.0170765	-0.349613	-0.618792	0.0553461	0.563206	0	-0.0719223	-0.127464	0.172451	-0.45478	-0.198384	-0.184097	1.97876	1.50455	0	0	-1.13116	-0.26806	-0.352237	1.87642	1.44083	0	0
3.04167	-0.136203	0.0704481	0.0328241	1.1845	1.02748	-0.285812	-0.180515	-0.036883	-0.0711848	-1.16588	-0.0824726	0.071827	0	0.786088	0.0262406	-0.37004	-0.521902	0.0227461	0.584873	0	-0.100045	-0.126389	0.160887	-0.463993	-0.195598	-0.181444	1.92942	1.47682	0	0	-1.10448	-0.276486	-0.349568	1.88154	1.43563	0	0
